<?xml version="1.0" encoding="UTF-8" standalone="no"?>
<svg
   enable-background="new 0 0 72 72"
   version="1.1"
   viewBox="0 0 615.11 71.9"
   id="svg5"
   xmlns="http://www.w3.org/2000/svg"
   xmlns:svg="http://www.w3.org/2000/svg">
  <defs
     id="defs5" />
  <g
     fill="#333"
     id="g5">
    <path
       class="st0"
       d="m36 41.6-4.6 4.6-0.6 11.4 4.8 14.3c-2.8 0-5.5-0.4-8.2-1.1l-0.7-0.2-2.3-6.9-6.5 3.3c-2.4-1.4-4.6-3-6.6-4.9l-0.5-0.5 12.1-6.1 0.4-6.9-6.9 0.4-6.1 12.1c-1.9-2-3.6-4.2-5-6.5l-0.4-0.6 3.3-6.5-6.9-2.3c-0.7-2.7-1.1-5.4-1.2-8.1v-0.7l14.4 4.8 11.4-0.6 4.6-4.6-4.6-4.6-11.4-0.6-14.5 4.7c0-2.8 0.4-5.6 1-8.2l0.2-0.7 6.9-2.3-3.3-6.5c1.4-2.4 3-4.6 4.9-6.6l0.5-0.5 6.1 12.1 6.9 0.4-0.4-6.9-12.1-6.1c2-1.9 4.2-3.6 6.5-5l0.6-0.4 6.5 3.3 2.3-6.9c2.7-0.7 5.4-1.1 8.1-1.2h0.7l-4.8 14.3 0.6 11.4 4.6 4.6z"
       id="path1" />
    <path
       d="m71.982 69.904c-3.7351 0.74173-5.7177 1.6939-12.745 1.6939-9.1666 0-16.375-3.1156-21.625-9.3467s-7.875-14.534-7.875-24.908c0-11.049 2.9444-20.01 8.8333-26.884 5.9166-6.8735 13.584-10.31 23-10.31 5.8333 0 6.6253 0.19037 10.547 0.67528l-0.08944 13.553c-3.4633-0.43685-4.2624-0.83416-9.3739-0.83416-5.6111 0-10.139 2.0396-13.584 6.1188-3.4445 4.0792-5.1666 9.6037-5.1666 16.574 0 6.6808 1.625 12.012 4.875 15.995 3.25 3.9507 7.625 5.926 13.125 5.926 5.25 0 5.8518-0.3595 10.123-1.168z"
       stroke-width="1.0753"
       aria-label="C"
       id="path2" />
    <path
       d="m114.79 26.408v-6.944c-9.7813 0-17.696 7.9893-17.696 17.771s7.9147 17.696 17.696 17.696 17.696-7.9147 17.696-17.696v-26.88h-6.944v26.88c0 5.8987-4.7787 10.752-10.752 10.752s-10.752-4.8533-10.752-10.752c0-5.9733 4.7787-10.827 10.752-10.827zm29.493 7.6907c1.344-4.8533 5.824-8.4373 11.125-8.4373s9.7067 3.584 11.051 8.4373zm21.952 6.944h7.168c0.29866-1.1947 0.448-2.5387 0.448-3.808 0-10.229-8.288-18.517-18.443-18.517-10.229 0-18.443 8.288-18.443 18.517 0 10.155 8.2133 18.443 18.443 18.443 7.7653 0 14.411-4.8533 17.099-11.648h-7.84c-2.0907 2.8373-5.4507 4.704-9.2587 4.704-5.0027 0-9.2587-3.2107-10.827-7.6907zm12.096 13.888h6.944v-13.888h10.603v-6.944h-10.603v-8.512c0-4.032 3.2107-7.3173 7.2427-7.3173h3.36v-6.944h-3.36c-7.84 0-14.187 6.4213-14.187 14.261zm28.971-35.317h-6.944v35.317h6.944zm34.72 30.091-4.928-4.8533c-4.1813 4.1813-11.051 4.1813-15.232 0-10.005-10.08 5.2267-25.312 15.232-15.232l4.928-4.928c-6.944-6.944-18.144-6.944-25.088 0-6.8693 6.8693-6.8693 18.144 0 25.013 6.944 6.944 18.144 6.944 25.088 0zm18.179-30.24v6.944c5.9733 0 10.752 4.8533 10.752 10.827v17.696h6.944v-17.696c0-9.7813-7.9147-17.771-17.696-17.771zm-6.7552-9.1093h-6.944v44.576h6.944v-40.245zm64.323 26.88c0-9.7813-7.9147-17.771-17.696-17.771s-17.696 7.9893-17.696 17.771 7.9147 17.696 17.696 17.696v-6.944c-5.9733 0-10.752-4.8533-10.752-10.752 0-5.9733 4.7787-10.827 10.752-10.827s10.752 4.8533 10.752 10.827v17.696h6.944zm11.424-17.621h-6.944v35.317h6.944zm32.928 35.317h6.944v-17.696c0-9.7813-7.9147-17.771-17.696-17.771s-17.696 7.9893-17.696 17.771v17.696h6.944v-17.696c0-5.9733 4.7787-10.827 10.752-10.827s10.752 4.8533 10.752 10.827z"
       aria-label="defichain"
       id="path3" />
    <g
       transform="matrix(1 0 0 .95777 0 .13079)"
       stroke-width="3"
       id="g4"
       style="fill:#333333;stroke:#333333">
      <path
         d="m409.47 3.0971v69.406"
         fill="#333"
         stroke="#fff"
         id="path4"
         style="fill:#333333;stroke:#333333" />
    </g>
    <path
       d="m461.38 55.677q-3.36 0-6.336-1.296-2.976-1.344-5.184-3.648t-3.504-5.376q-1.248-3.12-1.248-6.624t1.248-6.576q1.296-3.072 3.504-5.376t5.184-3.648 6.336-1.344q4.128 0 7.68 2.016 3.6 1.968 5.904 5.568 0.192 0.288 0.096 0.672-0.048 0.336-0.336 0.528-0.288 0.24-0.624 0.192-0.336-0.096-0.576-0.432-2.016-3.168-5.232-4.944-3.216-1.824-6.912-1.824-3.024 0-5.664 1.2t-4.656 3.264q-1.968 2.064-3.12 4.848-1.152 2.736-1.152 5.856t1.152 5.904q1.152 2.736 3.12 4.8 2.016 2.064 4.656 3.264t5.664 1.2q3.696 0 6.912-1.776t5.232-4.992q0.528-0.672 1.2-0.24 0.288 0.24 0.336 0.576 0.096 0.336-0.096 0.672-2.304 3.552-5.904 5.568-3.552 1.968-7.68 1.968zm35.232-2.64q0.384 0 0.624 0.24t0.24 0.624-0.24 0.672q-0.24 0.24-0.624 0.24h-18.576q-0.384 0-0.624-0.24-0.24-0.288-0.24-0.672v-30.336q0-0.384 0.24-0.624t0.624-0.24 0.624 0.24q0.288 0.24 0.288 0.624v29.472zm29.184 0.528q0.144 0.384 0 0.72t-0.48 0.432q-0.288 0.096-0.336 0.096-0.624 0-0.816-0.576l-3.36-7.968h-17.04l-3.36 7.968q-0.24 0.576-0.816 0.576-0.048 0-0.336-0.096-0.336-0.096-0.48-0.432t0-0.72l12.672-30.336q0.24-0.624 0.864-0.528 0.576-0.096 0.816 0.528zm-5.712-9.072-7.776-18.672-7.824 18.672zm17.376 11.184q-7.344 0-11.52-5.04-0.24-0.24-0.192-0.624t0.336-0.624q0.24-0.24 0.624-0.192t0.624 0.336q3.6 4.368 10.128 4.368 1.824 0 3.408-0.528 1.632-0.576 2.784-1.488 1.2-0.96 1.872-2.256 0.72-1.296 0.72-2.784 0-1.44-0.864-2.592-0.816-1.152-2.208-2.112-1.344-1.008-3.072-1.824-1.728-0.864-3.504-1.68-1.872-0.816-3.696-1.68-1.776-0.912-3.216-1.968-1.392-1.056-2.304-2.352-0.864-1.296-0.864-2.976 0-1.44 0.576-2.832t1.824-2.496q1.296-1.104 3.36-1.776 2.064-0.72 5.04-0.72 0.48 0 1.488 0.096t2.256 0.48q1.248 0.336 2.544 1.056 1.344 0.72 2.448 1.968 0.24 0.288 0.192 0.672 0 0.336-0.288 0.576-0.24 0.24-0.624 0.24-0.384-0.048-0.624-0.288-0.72-0.864-1.68-1.44-0.912-0.576-1.92-0.912-0.96-0.384-1.968-0.528-0.96-0.144-1.824-0.144-4.224 0-6.624 1.584t-2.4 4.464q0 1.248 0.72 2.256 0.768 1.008 2.016 1.92 1.296 0.864 2.928 1.68 1.632 0.768 3.36 1.536 1.968 0.864 3.888 1.824 1.92 0.912 3.408 2.064 1.536 1.152 2.448 2.592 0.96 1.44 0.96 3.312t-0.816 3.504q-0.816 1.584-2.256 2.784t-3.36 1.872-4.128 0.672zm23.424 0q-7.344 0-11.52-5.04-0.24-0.24-0.192-0.624t0.336-0.624q0.24-0.24 0.624-0.192t0.624 0.336q3.6 4.368 10.128 4.368 1.824 0 3.408-0.528 1.632-0.576 2.784-1.488 1.2-0.96 1.872-2.256 0.72-1.296 0.72-2.784 0-1.44-0.864-2.592-0.816-1.152-2.208-2.112-1.344-1.008-3.072-1.824-1.728-0.864-3.504-1.68-1.872-0.816-3.696-1.68-1.776-0.912-3.216-1.968-1.392-1.056-2.304-2.352-0.864-1.296-0.864-2.976 0-1.44 0.576-2.832t1.824-2.496q1.296-1.104 3.36-1.776 2.064-0.72 5.04-0.72 0.48 0 1.488 0.096t2.256 0.48q1.248 0.336 2.544 1.056 1.344 0.72 2.448 1.968 0.24 0.288 0.192 0.672 0 0.336-0.288 0.576-0.24 0.24-0.624 0.24-0.384-0.048-0.624-0.288-0.72-0.864-1.68-1.44-0.912-0.576-1.92-0.912-0.96-0.384-1.968-0.528-0.96-0.144-1.824-0.144-4.224 0-6.624 1.584t-2.4 4.464q0 1.248 0.72 2.256 0.768 1.008 2.016 1.92 1.296 0.864 2.928 1.68 1.632 0.768 3.36 1.536 1.968 0.864 3.888 1.824 1.92 0.912 3.408 2.064 1.536 1.152 2.448 2.592 0.96 1.44 0.96 3.312t-0.816 3.504q-0.816 1.584-2.256 2.784t-3.36 1.872-4.128 0.672zm13.584-0.864q-0.384 0-0.624-0.24-0.24-0.288-0.24-0.672v-30.336q0-0.384 0.24-0.624t0.624-0.24 0.624 0.24q0.288 0.24 0.288 0.624v30.336q0 0.912-0.912 0.912zm19.392 0.864q-3.36 0-6.336-1.296-2.976-1.344-5.184-3.648t-3.504-5.376q-1.248-3.12-1.248-6.624t1.248-6.576q1.296-3.072 3.504-5.376t5.184-3.648 6.336-1.344q4.128 0 7.68 2.016 3.6 1.968 5.904 5.568 0.192 0.288 0.096 0.672-0.048 0.336-0.336 0.528-0.288 0.24-0.624 0.192-0.336-0.096-0.576-0.432-2.016-3.168-5.232-4.944-3.216-1.824-6.912-1.824-3.024 0-5.664 1.2t-4.656 3.264q-1.968 2.064-3.12 4.848-1.152 2.736-1.152 5.856t1.152 5.904q1.152 2.736 3.12 4.8 2.016 2.064 4.656 3.264t5.664 1.2q3.696 0 6.912-1.776t5.232-4.992q0.528-0.672 1.2-0.24 0.288 0.24 0.336 0.576 0.096 0.336-0.096 0.672-2.304 3.552-5.904 5.568-3.552 1.968-7.68 1.968z"
       stroke-width="3"
       aria-label="CLASSIC"
       id="path5" />
  </g>
</svg>
